<?xml version="1.0" standalone="no"?>
<!DOCTYPE svg PUBLIC "-//W3C//DTD SVG 20010904//EN"
 "http://www.w3.org/TR/2001/REC-SVG-20010904/DTD/svg10.dtd">
<svg version="1.0" xmlns="http://www.w3.org/2000/svg"
 width="1000.000000pt" height="1280.000000pt" viewBox="0 0 1000.000000 1280.000000"
 preserveAspectRatio="xMidYMid meet">
<metadata>
Created by potrace 1.15, written by Peter Selinger 2001-2017
</metadata>
<g transform="translate(0.000000,1280.000000) scale(0.100000,-0.100000)"
fill="#000000" stroke="none">
<path d="M3230 12793 c-273 -52 -579 -177 -945 -385 -213 -121 -256 -141 -380
-177 -143 -42 -192 -70 -273 -156 -102 -106 -144 -215 -141 -357 2 -73 0 -79
-28 -111 -34 -39 -68 -106 -108 -214 -14 -39 -39 -89 -54 -110 -38 -52 -243
-190 -541 -363 -461 -269 -694 -446 -745 -566 -41 -97 15 -248 106 -282 16 -7
37 -32 58 -71 18 -34 44 -69 57 -78 23 -14 28 -14 66 1 l42 16 41 -39 c122
-116 320 -199 551 -230 44 -6 142 -15 220 -21 99 -7 151 -15 175 -27 25 -13
56 -18 114 -17 71 1 91 6 174 42 52 23 95 41 97 39 1 -1 -27 -40 -62 -86 -71
-95 -128 -201 -147 -276 -8 -31 -25 -63 -46 -85 -19 -19 -40 -49 -47 -66 -22
-52 -156 -225 -225 -289 -35 -33 -63 -64 -62 -70 2 -5 -68 -63 -155 -127 -86
-65 -179 -140 -207 -168 -48 -49 -49 -52 -53 -119 -2 -40 1 -85 8 -107 19 -56
109 -204 128 -211 9 -4 29 -15 44 -25 34 -24 70 -23 93 2 10 11 36 23 57 26
40 7 55 18 38 29 -5 3 -10 10 -10 14 0 14 51 31 75 25 20 -5 25 -1 31 20 7 31
9 31 34 6 11 -11 23 -20 27 -20 5 0 25 30 46 66 83 141 137 177 252 167 39 -3
79 -12 90 -19 34 -24 93 -17 147 16 27 17 72 36 99 42 27 6 49 17 49 23 0 7
35 22 78 34 272 77 359 114 475 200 75 55 166 141 202 190 17 22 36 41 43 41
8 0 26 6 40 14 36 18 253 86 274 86 25 0 31 17 11 29 -16 9 -16 10 4 11 15 0
36 -18 67 -59 44 -59 45 -60 26 -81 -28 -32 -33 -58 -20 -91 14 -32 66 -69 98
-69 17 0 22 -8 27 -47 29 -207 67 -309 254 -678 140 -276 183 -380 231 -563 6
-23 30 -66 54 -95 87 -107 96 -140 57 -196 -12 -16 -21 -40 -21 -53 0 -27 -23
-51 -86 -92 -23 -15 -56 -49 -74 -77 -38 -60 -36 -82 17 -140 l36 -40 -32 -61
c-34 -66 -41 -127 -17 -151 26 -25 91 -29 151 -9 l55 19 0 -52 c0 -34 5 -57
15 -65 12 -10 9 -17 -20 -47 -41 -42 -42 -46 -13 -73 15 -14 35 -20 68 -20 43
0 47 -2 58 -34 27 -73 116 -121 182 -98 29 11 30 10 30 -19 0 -16 -24 -75 -55
-134 -49 -94 -53 -107 -44 -135 13 -35 44 -60 75 -60 11 0 47 9 79 20 68 24
118 26 134 6 7 -8 14 -48 16 -88 4 -67 7 -75 35 -100 35 -32 83 -37 117 -13
12 8 24 12 26 8 2 -5 21 -66 42 -138 20 -71 49 -157 62 -190 39 -93 191 -279
668 -815 310 -349 415 -470 524 -608 45 -57 95 -108 130 -131 54 -37 99 -78
90 -84 -2 -1 -39 -20 -83 -41 -116 -58 -252 -190 -227 -220 8 -10 6 -20 -9
-39 -27 -33 -25 -47 9 -94 42 -58 115 -103 166 -103 40 0 134 27 182 51 33 18
48 6 71 -59 24 -64 59 -91 101 -77 16 5 21 2 21 -13 0 -11 -7 -25 -15 -32 -23
-19 -18 -54 14 -84 l29 -28 56 36 c53 34 56 34 66 16 5 -10 19 -22 30 -25 19
-6 18 -9 -15 -48 -20 -23 -38 -51 -41 -64 -3 -12 -12 -24 -20 -27 -35 -13 6
-66 51 -66 11 0 26 -4 33 -9 18 -11 -4 -63 -57 -133 -22 -29 -45 -74 -51 -100
-9 -36 -17 -48 -31 -48 -27 0 -24 -27 3 -36 13 -4 28 -14 34 -22 16 -21 80 -8
99 22 8 12 21 44 29 70 8 27 25 59 38 73 13 13 33 52 46 86 l22 62 -6 -55 c-9
-91 -11 -98 -37 -132 -29 -39 -47 -89 -47 -130 0 -25 7 -32 46 -50 33 -14 60
-19 90 -15 l44 4 62 -91 c116 -172 221 -306 238 -306 37 0 141 -63 187 -114
64 -70 100 -146 172 -360 42 -127 65 -182 81 -193 30 -21 36 -42 70 -241 44
-251 62 -334 85 -368 26 -40 35 -154 11 -154 -20 0 -20 -13 0 -51 14 -28 17
-29 28 -13 11 15 14 6 20 -57 9 -102 32 -204 56 -254 11 -22 20 -45 20 -50 0
-5 8 -17 17 -27 15 -17 15 -19 -2 -32 -17 -12 -18 -17 -7 -41 12 -27 13 -27
32 -10 14 12 20 31 20 58 0 24 6 44 15 51 13 9 14 20 5 64 -6 34 -6 70 0 103
14 72 12 135 -5 199 -18 69 -19 66 4 66 15 0 26 -25 60 -141 23 -77 55 -169
72 -204 28 -61 30 -63 48 -47 10 9 31 44 45 76 15 34 40 69 58 82 77 57 106
96 133 177 14 45 30 83 35 86 15 9 75 -18 155 -70 44 -29 99 -62 121 -73 l41
-21 21 22 c49 54 57 85 57 217 0 115 -3 132 -33 216 -17 50 -32 107 -32 127 0
20 -9 73 -20 119 -23 97 -24 134 -6 167 l14 25 15 -30 c17 -34 32 -114 42
-224 11 -126 41 -220 71 -220 13 0 10 -55 -6 -118 -9 -35 -4 -62 12 -62 6 0 7
-36 3 -92 -8 -111 1 -143 43 -151 36 -7 101 9 108 28 4 10 13 11 37 4 18 -5
38 -9 44 -9 26 0 12 41 -32 94 -41 50 -45 61 -45 108 0 29 5 60 10 68 6 10 10
11 10 3 0 -7 6 -13 14 -13 10 0 19 27 30 89 37 201 45 367 25 521 -12 89 -14
127 -23 302 -4 91 -3 109 10 116 14 8 15 12 1 38 -19 38 -26 89 -32 251 -3 93
-10 149 -24 190 -10 32 -22 74 -26 93 -4 19 -31 96 -60 170 -61 153 -73 216
-55 289 18 76 31 80 70 19 19 -28 62 -82 97 -119 42 -44 63 -75 63 -91 0 -58
136 -258 175 -258 36 0 58 33 51 75 -4 19 -3 35 2 35 5 0 32 -29 61 -65 69
-84 110 -95 174 -45 l27 21 -23 42 c-37 71 -40 80 -20 72 10 -4 54 -20 97 -35
77 -27 82 -28 193 -18 62 5 144 17 181 26 l67 17 3 3268 c2 3158 1 3267 -16
3267 -10 0 -29 12 -43 26 -32 35 -131 89 -199 108 -85 25 -209 29 -370 13
l-145 -16 -57 30 c-31 16 -67 29 -79 29 -31 0 -240 54 -349 90 -350 117 -599
257 -806 451 -103 97 -225 157 -644 314 -113 43 -248 98 -300 123 -82 38 -107
45 -187 52 -178 15 -271 80 -498 350 -172 204 -235 260 -375 330 -36 18 -67
36 -70 40 -3 4 -16 13 -30 20 -14 7 -51 34 -83 59 -32 25 -74 58 -94 73 -31
24 -33 28 -17 34 100 31 114 64 27 64 -95 1 -184 24 -211 56 -15 17 -22 35
-18 47 3 11 0 30 -6 41 -6 12 -12 62 -13 112 l-2 91 31 9 c46 13 38 29 -16 32
-27 2 -48 7 -48 11 0 4 -31 47 -70 95 -38 48 -70 88 -70 90 0 2 11 1 25 -2 14
-2 36 3 50 12 l24 16 -57 57 c-31 32 -77 87 -102 122 -31 44 -60 72 -96 93
-29 16 -54 35 -57 42 -7 18 -172 146 -189 146 -7 0 -26 19 -43 41 -16 23 -57
66 -90 97 -76 70 -306 185 -485 242 -169 54 -156 48 -135 64 17 12 17 14 -4
43 -20 27 -31 31 -104 42 -45 6 -170 11 -277 11 -107 0 -231 4 -275 10 -141
16 -169 18 -195 13z m249 -58 c7 -7 -27 -9 -97 -6 -73 2 -99 6 -82 12 33 11
167 6 179 -6z m159 -22 c-10 -2 -26 -2 -35 0 -10 3 -2 5 17 5 19 0 27 -2 18
-5z m1522 -851 c0 -15 -2 -15 -11 -2 -5 8 -17 29 -25 45 l-15 30 25 -28 c15
-15 26 -36 26 -45z m-3592 -212 c-7 -11 -15 -15 -17 -9 -2 6 3 15 10 20 20 12
21 11 7 -11z m4387 -900 c3 -5 1 -10 -4 -10 -6 0 -11 5 -11 10 0 6 2 10 4 10
3 0 8 -4 11 -10z m-3030 -40 c-3 -5 -12 -10 -18 -10 -7 0 -6 4 3 10 19 12 23
12 15 0z m-2380 -121 c37 -11 65 -23 62 -25 -6 -6 -139 26 -151 37 -16 15 18
10 89 -12z m5175 -20 c0 -6 -4 -7 -10 -4 -5 3 -10 11 -10 16 0 6 5 7 10 4 6
-3 10 -11 10 -16z m-2340 -9 c0 -11 -4 -20 -9 -20 -5 0 -7 9 -4 20 3 11 7 20
9 20 2 0 4 -9 4 -20z m1704 -60 l7 -25 -15 25 c-17 28 -21 50 -7 35 5 -6 12
-21 15 -35z m-4284 -6 c0 -2 -13 2 -30 11 -16 9 -30 18 -30 21 0 2 14 -2 30
-11 17 -9 30 -18 30 -21z m3817 -176 c-3 -7 -5 -2 -5 12 0 14 2 19 5 13 2 -7
2 -19 0 -25z m-1572 -128 c3 -5 -1 -10 -9 -10 -9 0 -16 5 -16 10 0 6 4 10 9
10 6 0 13 -4 16 -10z m2976 -181 c-6 -16 -10 -18 -10 -7 -1 22 12 55 16 42 2
-6 -1 -22 -6 -35z m-1046 -199 c10 -11 13 -20 7 -20 -6 0 -16 9 -22 20 -6 11
-9 20 -7 20 2 0 12 -9 22 -20z m2648 -21 l42 -19 -35 6 c-19 4 -60 15 -90 25
l-55 19 48 -6 c27 -3 67 -14 90 -25z m-5324 -33 c-2 -1 -19 -8 -36 -14 -37
-12 -45 -6 -10 8 22 9 54 13 46 6z m-624 -26 c-10 -16 -96 -57 -135 -64 -22
-5 -7 5 44 28 43 19 81 37 84 40 9 10 14 7 7 -4z m4015 -13 c0 -2 -10 -12 -22
-23 l-23 -19 19 23 c18 21 26 27 26 19z m-383 -384 c-3 -10 -5 -4 -5 12 0 17
2 24 5 18 2 -7 2 -21 0 -30z m-701 -150 c-6 -6 -36 9 -36 18 0 5 9 4 20 -3 10
-7 18 -14 16 -15z m4370 -59 c130 -19 174 -35 73 -27 -89 7 -201 30 -213 44
-8 9 -7 10 5 6 9 -3 70 -13 135 -23z m-6791 -104 c-3 -5 -16 -15 -28 -21 -21
-10 -21 -9 2 10 25 23 36 27 26 11z m-183 -57 c-11 -16 -35 -41 -53 -58 l-32
-30 23 34 c29 42 62 79 73 80 5 1 -1 -11 -11 -26z m-659 -234 c-6 -6 -7 3 -4
23 4 28 6 29 9 9 2 -13 0 -27 -5 -32z m627 -159 c-8 -5 -19 -10 -25 -10 -5 0
-3 5 5 10 8 5 20 10 25 10 6 0 3 -5 -5 -10z m-310 -20 c-6 -11 -13 -20 -16
-20 -2 0 0 9 6 20 6 11 13 20 16 20 2 0 0 -9 -6 -20z m-390 -45 c0 -8 -4 -17
-10 -20 -6 -4 -10 5 -10 20 0 15 4 24 10 20 6 -3 10 -12 10 -20z m2845 -1615
c3 -6 -1 -7 -9 -4 -18 7 -21 14 -7 14 6 0 13 -4 16 -10z m695 -1475 c7 -33 17
-68 22 -79 7 -12 7 -16 0 -12 -16 10 -52 113 -52 149 1 43 13 19 30 -58z m540
-647 c29 -38 30 -40 6 -18 -25 23 -52 60 -43 60 2 0 19 -19 37 -42z m710
-1333 c7 -8 8 -15 2 -15 -5 0 -15 7 -22 15 -7 8 -8 15 -2 15 5 0 15 -7 22 -15z
m2457 -457 c-3 -8 -6 -5 -6 6 -1 11 2 17 5 13 3 -3 4 -12 1 -19z m-1917 -74
c0 -14 -4 -23 -10 -19 -5 3 -10 15 -10 26 0 10 5 19 10 19 6 0 10 -12 10 -26z
m2667 -380 c-3 -3 -12 -4 -19 -1 -8 3 -5 6 6 6 11 1 17 -2 13 -5z m-2317 -59
c20 -24 6 -28 -15 -5 -10 11 -13 20 -8 20 6 0 16 -7 23 -15z m325 -444 c27
-13 33 -20 20 -20 -11 0 -36 8 -55 19 -45 25 -17 25 35 1z m499 -624 c10 -7
34 -58 53 -113 30 -84 37 -118 43 -229 5 -71 18 -210 29 -307 12 -98 21 -195
21 -215 -1 -38 -1 -37 -34 32 -34 71 -66 168 -66 200 0 13 -6 16 -21 12 -17
-5 -18 -3 -8 9 9 12 7 34 -10 107 -11 51 -35 173 -52 272 -17 99 -33 195 -36
213 -5 31 -5 32 29 32 19 0 42 -6 52 -13z"/>
</g>
</svg>
